<?xml version="1.0" encoding="UTF-8"?>
<!DOCTYPE svg PUBLIC "-//W3C//DTD SVG 1.1//EN" "http://www.w3.org/Graphics/SVG/1.1/DTD/svg11.dtd">
<!-- Creator: CorelDRAW -->
<svg xmlns="http://www.w3.org/2000/svg" xml:space="preserve" width="1000px" height="1000px" version="1.1" shape-rendering="geometricPrecision" text-rendering="geometricPrecision" image-rendering="optimizeQuality" fill-rule="evenodd" clip-rule="evenodd"
viewBox="0 0 999.69 999.69"
 xmlns:xlink="http://www.w3.org/1999/xlink"
 xmlns:xodm="http://www.corel.com/coreldraw/odm/2003">
 <defs>
    <linearGradient id="id0" gradientUnits="userSpaceOnUse" x1="349.48" y1="606.65" x2="763.02" y2="606.65">
     <stop offset="0" stop-opacity="1" stop-color="#FFA004"/>
     <stop offset="1" stop-opacity="1" stop-color="#FF128A"/>
    </linearGradient>
 </defs>
 <g id="Layer_x0020_1">
  <metadata id="CorelCorpID_0Corel-Layer"/>
  <g id="_2266810437680">
   <rect fill="black" width="999.69" height="999.69" rx="0.02" ry="0.02"/>
   <path fill="#59168B" d="M461.34 73.58l36.54 -35.69c0.54,-0.55 1.26,-0.82 1.98,-0.82l0 -0.01c0.84,0 1.6,0.37 2.11,0.96l72.8 71.16c0.62,0.51 1,1.28 1,2.15l0 21.17 -0.01 0c0,0.63 -0.21,1.26 -0.64,1.78l-35.9 43.2 0 111.78c0,1.56 -1.26,2.81 -2.81,2.81l-73.13 0c-1.55,0 -2.81,-1.25 -2.81,-2.81l0 -111.78 -35.73 -43c-0.51,-0.51 -0.82,-1.21 -0.82,-1.98l0 -21.17 0.01 0c0,-0.73 0.28,-1.46 0.84,-2.01l36.57 -35.74zm38.52 34.59l-15.89 16.75 15.89 16.78 15.87 -16.78 -15.87 -16.75z"/>
   <path fill="#59168B" fill-rule="nonzero" d="M499.86 889.27c82.26,-30.65 146.83,-73.1 193.42,-126.9 47.01,-54.29 75.85,-120.3 86.22,-197.55 2.45,-47.42 3.75,-94.68 3.79,-141.76 0.04,-45.07 -1.08,-90.27 -3.46,-135.62 -69.34,-19.26 -134.46,-28.16 -208.09,-30.28 -4.87,-0.14 -8.72,-4.12 -8.72,-8.96l-0.03 0 0 -49.11c0,-5.24 4.27,-9.35 10.03,-8.93 46.93,1.45 92.51,5.14 136.52,11.39 44.5,6.31 87.46,15.19 128.67,26.96 3.97,1.13 6.55,4.75 6.53,8.68 3.02,55.12 4.44,110.41 4.39,165.84 -0.04,55.61 -1.56,111.06 -4.42,166.36 -0.02,0.38 -0.06,0.76 -0.13,1.12 -12.53,93.5 -47.44,172.74 -104.37,237.93 -57.16,65.47 -136.37,116.61 -237.26,153.64 -2.08,0.76 -4.26,0.7 -6.18,-0.01 -189.12,-69.44 -315.45,-193.53 -341.72,-391.97 -0.03,-0.24 -0.05,-0.47 -0.07,-0.71 -5.76,-110.26 -6.05,-222.47 0,-332.73 0.21,-3.92 2.92,-7.12 6.5,-8.14l0 -0.01c84.78,-24.2 175.97,-35.78 265.98,-38.37 4.99,-0.15 9.13,3.78 9.21,8.95l0.03 0 0 49.11c0,5.09 -3.9,8.97 -9.47,8.98 -39.44,1.21 -75.42,4.26 -110.27,9.47 -32.79,4.9 -64.51,11.74 -97.1,20.79 -2.36,45.35 -3.48,90.55 -3.45,135.62 0.04,47.08 1.33,94.34 3.78,141.76 10.37,77.25 39.21,143.26 86.22,197.55 46.6,53.8 111.18,96.25 193.45,126.9z"/>
   <path fill="#59168B" d="M355.52 403.07c-14.75,-15.48 -21.65,-39.23 -24.94,-63.37 -0.25,-1.92 0.86,-3.72 2.59,-4.4l-0.01 -0.01c95.95,-37.92 237.4,-37.9 333.36,0 1.92,0.76 2.95,2.78 2.54,4.72 -2.15,15.5 -5.4,28.08 -9.53,38.3 -4.25,10.51 -9.45,18.57 -15.37,24.76 -1.26,1.33 -3.2,1.63 -4.77,0.89 -40.46,-17.73 -89.97,-26.6 -139.53,-26.6 -49.62,0 -99.18,8.88 -139.68,26.65 -1.64,0.72 -3.49,0.28 -4.66,-0.94z"/>
   <path fill="#00D9F8" d="M463.12 398.02l27.54 -2.44c1.19,0 2.16,0.97 2.16,2.16l0 256.52c0,1.19 -0.97,2.16 -2.16,2.16l-54.24 0c-1.2,0 -2.16,-0.97 -2.16,-2.16l0 -249.76c0,-1.01 0.71,-1.92 1.73,-2.12 8.98,-1.8 18.03,-3.24 27.13,-4.36z"/>
   <path fill="#00D9F8" d="M511.39 395.62l54.12 6.29c1.1,0.13 1.91,1.06 1.91,2.15l0 139.95c0,1.26 -0.98,2.21 -2.4,2.15 -21.46,-0.67 -32.07,9.96 -37.21,26.31 -5.35,17.01 -4.98,40.22 -4.52,63.52 0.02,1.2 -0.95,2.2 -2.16,2.2l0 0 -10.11 0c-1.19,0 -2.16,-0.96 -2.16,-2.16l0 -238.29c0,-1.33 1.2,-2.35 2.53,-2.12z"/>
   <path fill="url(#id0)" d="M634.42 511.76c21.92,-37.1 43.84,-74.23 65.73,-111.36 21.92,37.13 43.81,74.26 65.74,111.36 -12.93,0 -25.83,0 -38.76,0 0,39.22 0,78.4 0,117.59 -40.71,0 -81.43,0 -122.15,0 0,31.26 0,62.52 0,93.75 -40.95,0 -81.93,0 -122.9,0 0,31.55 0,63.1 0,94.63 -23.2,0 -46.39,0 -69.58,0 -26.81,-14.84 -47.14,-35.78 -62.41,-61.43 27.15,0 54.34,0 81.49,0 0,-27.93 0,-55.87 0,-83.8 40.29,0 80.57,0 120.86,0 0,-31.29 0,-62.61 0,-93.93 40.25,0 80.51,0 120.76,0 0,-22.27 0,-44.54 0,-66.81 -12.93,0 -25.85,0 -38.78,0z"/>
  </g>
 </g>
</svg>
