<?xml version="1.0" encoding="UTF-8"?>
<!DOCTYPE svg PUBLIC "-//W3C//DTD SVG 1.1//EN" "http://www.w3.org/Graphics/SVG/1.1/DTD/svg11.dtd">
<!-- Creator: CorelDRAW -->
<svg xmlns="http://www.w3.org/2000/svg" xml:space="preserve" width="7.87402in" height="8.5273in" version="1.1" style="shape-rendering:geometricPrecision; text-rendering:geometricPrecision; image-rendering:optimizeQuality; fill-rule:evenodd; clip-rule:evenodd"
viewBox="0 0 7871.7 8524.79"
 xmlns:xlink="http://www.w3.org/1999/xlink"
 xmlns:xodm="http://www.corel.com/coreldraw/odm/2003">
 <defs>
  <style type="text/css">
   <![CDATA[
    .fil0 {fill:black}
   ]]>
  </style>
 </defs>
 <g id="Layer_x0020_1">
  <metadata id="CorelCorpID_0Corel-Layer"/>
  <g id="_2914202355744">
   <path class="fil0" d="M3898.87 8524.79c-835.63,-898.44 -1673.7,-1726.94 -2514.83,-2453.79 39.92,-1343.39 -324.42,-2583.15 -1384.04,-3644.66 1152.89,535.45 2102.27,1309.84 2606.62,2606.62 275.29,-1048.43 -267.32,-2861.98 -871.88,-4733.51 2005.4,2905.2 3262.49,5715.13 2164.13,8225.33z"/>
   <path class="fil0" d="M4832.96 5097.61l429.37 -946.87c-44.04,-1410.83 464.12,-2784.04 1067.97,-4150.74l-2135.93 3397.44 638.59 1700.17z"/>
   <path class="fil0" d="M7871.7 2422.18c-1467.31,1025.72 -2345.84,2295.59 -2609.37,3820.45l0 1034.95c396.36,-389.03 792.72,-778.04 1189.08,-1167.07 35.34,-1732.46 592.16,-2866.13 1420.3,-3688.33z"/>
  </g>
 </g>
</svg>
