<?xml version="1.0" encoding="UTF-8"?>
<!DOCTYPE svg PUBLIC "-//W3C//DTD SVG 1.1//EN" "http://www.w3.org/Graphics/SVG/1.1/DTD/svg11.dtd">
<!-- Creator: CorelDRAW -->
<svg xmlns="http://www.w3.org/2000/svg" xml:space="preserve" width="7.87402in" height="6.59304in" version="1.1" style="shape-rendering:geometricPrecision; text-rendering:geometricPrecision; image-rendering:optimizeQuality; fill-rule:evenodd; clip-rule:evenodd"
viewBox="0 0 7871.71 6591.11"
 xmlns:xlink="http://www.w3.org/1999/xlink"
 xmlns:xodm="http://www.corel.com/coreldraw/odm/2003">
 <defs>
  <style type="text/css">
   <![CDATA[
    .fil0 {fill:black}
   ]]>
  </style>
 </defs>
 <g id="Layer_x0020_1">
  <metadata id="CorelCorpID_0Corel-Layer"/>
  <g id="_2914228572672">
   <polygon class="fil0" points="3716.12,2518.11 4234.45,2518.11 4869.38,5897.57 3974.86,6591.11 3042.8,5897.57 "/>
   <polygon class="fil0" points="-0,1417.38 2527.22,1417.36 3258.04,2137.04 2789.42,3771.65 1629.01,3303.03 2309.64,2360.19 1461.66,2365.78 "/>
   <polygon class="fil0" points="7871.71,1417.38 5344.49,1417.36 4613.67,2137.04 5082.29,3771.65 6242.7,3303.03 5562.07,2360.19 6410.05,2365.78 "/>
   <path class="fil0" d="M3974.86 0l-953.78 0 -221.33 437.01 1175.12 1390.51 0 -1827.52zm0 0l953.78 0 221.33 437.01 -1175.12 1390.51 0 -1827.52z"/>
  </g>
 </g>
</svg>
